<?xml version="1.0" encoding="UTF-8"?>
<svg version="1.1" xmlns="http://www.w3.org/2000/svg" width="253" height="249">
<path d="M0 0 C1.09452484 -0.00761353 2.18904968 -0.01522705 3.31674194 -0.02307129 C5.61755107 -0.03380006 7.9184086 -0.03675512 10.21923828 -0.03222656 C13.68217145 -0.03125805 17.14285622 -0.07288969 20.60546875 -0.1171875 C33.92377771 -0.18772516 45.52178902 0.98546547 58.0859375 5.46875 C59.07392334 5.81123779 60.06190918 6.15372559 61.07983398 6.5065918 C73.60742719 11.02982198 87.78701038 18.74351103 97.0859375 28.46875 C98.92934701 30.02005608 100.79134959 31.54582443 102.66015625 33.06640625 C103.13066406 33.52917969 103.60117188 33.99195313 104.0859375 34.46875 C104.0859375 35.12875 104.0859375 35.78875 104.0859375 36.46875 C104.69050781 36.73816406 105.29507813 37.00757813 105.91796875 37.28515625 C109.43594856 39.20578306 111.59091903 42.40819401 114.0859375 45.46875 C114.76914063 46.2421875 115.45234375 47.015625 116.15625 47.8125 C122.2348734 54.84421766 126.67316482 62.31990087 131.02050781 70.47753906 C132.05395763 72.40898193 133.10875067 74.32694832 134.171875 76.2421875 C141.81933636 90.13247445 141.81933636 90.13247445 139.5078125 98.58203125 C135.32953217 109.88238033 128.66181622 120.70967545 121.5859375 130.40625 C120.23558015 132.26299135 118.99610343 134.15186881 117.7734375 136.09375 C117.2165625 136.8775 116.6596875 137.66125 116.0859375 138.46875 C115.4259375 138.46875 114.7659375 138.46875 114.0859375 138.46875 C113.745625 139.5515625 113.745625 139.5515625 113.3984375 140.65625 C111.82188664 144.03457327 109.77607175 145.90671738 107.0859375 148.46875 C106.4878125 149.2525 105.8896875 150.03625 105.2734375 150.84375 C102.27346571 154.44371614 98.97690539 157.83170731 95.0859375 160.46875 C93.7659375 160.46875 92.4459375 160.46875 91.0859375 160.46875 C87.0859375 156.24652778 87.0859375 156.24652778 87.0859375 153.46875 C86.4259375 153.46875 85.7659375 153.46875 85.0859375 153.46875 C84.8178125 152.664375 84.5496875 151.86 84.2734375 151.03125 C83.8815625 150.185625 83.4896875 149.34 83.0859375 148.46875 C82.0959375 148.13875 81.1059375 147.80875 80.0859375 147.46875 C79.3984375 145.40625 79.3984375 145.40625 79.0859375 143.46875 C78.4259375 143.46875 77.7659375 143.46875 77.0859375 143.46875 C76.3359375 141.28125 76.3359375 141.28125 76.0859375 138.46875 C77.91815243 135.6499578 80.06220657 133.49244151 82.4375 131.12109375 C90.06517015 123.48217335 96.44034021 115.90316054 102.078125 106.73046875 C103.42054647 104.54968678 104.82979887 102.40871474 106.30078125 100.3125 C108.47385383 96.85080013 108.85620721 94.93388522 108.65625 90.94140625 C107.46139297 85.76096447 104.13983116 81.72298578 101.0859375 77.46875 C100.31782694 76.33328221 99.55361177 75.19517123 98.79296875 74.0546875 C94.14672876 67.14861067 89.36113216 61.33675974 83.0234375 55.90625 C81.0015215 54.17260718 79.06966041 52.45182455 77.22265625 50.53125 C59.53109851 33.45420707 35.24113825 27.05014723 11.28344727 27.16821289 C-12.1833244 27.69526396 -35.37174339 36.73789656 -52.57421875 52.98046875 C-55.28562764 55.86388688 -57.82975515 58.85542344 -60.36328125 61.89453125 C-61.13091797 62.67376953 -61.13091797 62.67376953 -61.9140625 63.46875 C-62.5740625 63.46875 -63.2340625 63.46875 -63.9140625 63.46875 C-64.171875 64.01015625 -64.4296875 64.5515625 -64.6953125 65.109375 C-66.13872544 67.90367441 -67.74844784 70.55094346 -69.4140625 73.21875 C-70.0225 74.20359375 -70.6309375 75.1884375 -71.2578125 76.203125 C-71.804375 76.95078125 -72.3509375 77.6984375 -72.9140625 78.46875 C-73.5740625 78.46875 -74.2340625 78.46875 -74.9140625 78.46875 C-75.1821875 79.355625 -75.4503125 80.2425 -75.7265625 81.15625 C-76.9140625 84.46875 -76.9140625 84.46875 -78.5390625 86.84375 C-80.44895089 90.48990057 -80.73488872 93.50493108 -79.9140625 97.46875 C-74.16336536 110.9841015 -61.71690068 125.51119376 -50.8515625 135.21875 C-48.9140625 137.46875 -48.9140625 137.46875 -48.8515625 139.90625 C-51.10474447 145.34039474 -54.98693423 150.09037004 -58.4140625 154.84375 C-59.166875 155.90335938 -59.9196875 156.96296875 -60.6953125 158.0546875 C-61.4275 158.85132813 -62.1596875 159.64796875 -62.9140625 160.46875 C-68.24032939 160.46875 -69.1561835 159.05581631 -72.9140625 155.46875 C-72.9140625 154.80875 -72.9140625 154.14875 -72.9140625 153.46875 C-73.9040625 153.13875 -74.8940625 152.80875 -75.9140625 152.46875 C-77.37890625 150.76171875 -77.37890625 150.76171875 -78.8515625 148.65625 C-80.57955483 146.24740283 -82.18340915 144.19940335 -84.2890625 142.09375 C-85.0934375 141.289375 -85.0934375 141.289375 -85.9140625 140.46875 C-85.9140625 139.80875 -85.9140625 139.14875 -85.9140625 138.46875 C-86.9040625 138.13875 -87.8940625 137.80875 -88.9140625 137.46875 C-90.60311793 135.20683311 -92.14788107 132.96702868 -93.6640625 130.59375 C-94.1065332 129.9126416 -94.54900391 129.2315332 -95.00488281 128.52978516 C-95.89859805 127.15162312 -96.7889343 125.77126365 -97.67578125 124.38867188 C-98.73757066 122.74239586 -99.82348403 121.11172256 -100.9140625 119.484375 C-114.04782821 99.66646067 -114.04782821 99.66646067 -111.9140625 88.46875 C-109.924363 81.66797817 -106.50333145 75.54051044 -102.9140625 69.46875 C-102.41519531 68.61925781 -101.91632813 67.76976563 -101.40234375 66.89453125 C-99.92595596 64.40661329 -98.42816805 61.933864 -96.9140625 59.46875 C-96.51832031 58.82035156 -96.12257813 58.17195313 -95.71484375 57.50390625 C-94.83918842 56.12043593 -93.8853093 54.78687065 -92.9140625 53.46875 C-92.2540625 53.46875 -91.5940625 53.46875 -90.9140625 53.46875 C-90.2540625 51.81875 -89.5940625 50.16875 -88.9140625 48.46875 C-88.2540625 48.46875 -87.5940625 48.46875 -86.9140625 48.46875 C-86.57375 47.3859375 -86.57375 47.3859375 -86.2265625 46.28125 C-83.6257045 40.70798286 -78.3725305 37.06533143 -73.78125 33.1171875 C-72.64044828 32.11003619 -71.52343968 31.0739494 -70.453125 29.9921875 C-52.33423667 12.05724728 -25.5285033 0.00504581 0 0 Z " fill="#fff" transform="translate(112.9140625,-0.46875)"/>
<path d="M0 0 C3.20117671 0.49217058 4.56092537 1.13208087 7.0859375 3.08984375 C30.50858148 19.70858113 64.89870089 24.79437129 92.9609375 20.65234375 C94.98531413 20.2750499 97.00632318 19.8792122 99.0234375 19.46484375 C100.12429687 19.27019531 101.22515625 19.07554687 102.359375 18.875 C118.27252274 15.85328992 134.51006024 9.47376192 148.0234375 0.46484375 C150.39453125 -0.046875 150.39453125 -0.046875 153.0234375 0.46484375 C154.96400189 2.50707099 156.49114224 4.36737435 158.0859375 6.65234375 C158.93067652 7.81272797 159.77572454 8.97288731 160.62109375 10.1328125 C161.22268311 10.98431885 161.22268311 10.98431885 161.83642578 11.85302734 C162.92034938 13.32486272 164.12184576 14.70821959 165.33203125 16.078125 C167.0234375 18.46484375 167.0234375 18.46484375 167.45703125 21.10546875 C166.93303862 23.95674396 166.42422403 24.55706512 164.0859375 26.21484375 C150.56703596 35.49111129 135.46361119 41.73055436 119.7734375 46.21484375 C119.04068604 46.42592773 118.30793457 46.63701172 117.55297852 46.85449219 C108.43045679 49.35448802 99.42766296 49.62303463 90.0078125 49.6328125 C88.8749884 49.6361409 87.74216431 49.6394693 86.57501221 49.64289856 C84.18819583 49.64793911 81.80137247 49.65030778 79.41455078 49.65014648 C75.79838209 49.6523287 72.18252094 49.67050384 68.56640625 49.68945312 C66.23437603 49.69238865 63.90234438 49.69437238 61.5703125 49.6953125 C59.97434235 49.70609077 59.97434235 49.70609077 58.34613037 49.71708679 C47.88811745 49.68588089 37.65169468 48.30393768 27.6484375 45.21484375 C26.93494141 44.99795898 26.22144531 44.78107422 25.48632812 44.55761719 C14.82657206 41.23883574 4.73277545 36.9955042 -5.1640625 31.83984375 C-5.88335937 31.46762695 -6.60265625 31.09541016 -7.34375 30.71191406 C-11.07730775 28.71179384 -14.28036945 26.82460763 -16.9765625 23.46484375 C-16.87477352 19.49507352 -15.18581361 16.69374921 -12.9765625 13.46484375 C-12.51636719 13.02785156 -12.05617188 12.59085938 -11.58203125 12.140625 C-8.87861966 9.31881583 -7.02638009 5.8676934 -4.98828125 2.546875 C-2.9765625 0.46484375 -2.9765625 0.46484375 0 0 Z " fill="#fff" transform="translate(51.9765625,199.53515625)"/>
<path d="M0 0 C3.92614787 2.3294415 7.20928414 4.7589713 10.125 8.3125 C10.805625 9.034375 11.48625 9.75625 12.1875 10.5 C17.98473512 18.9153413 19.2533178 27.20416835 18.125 37.3125 C15.92634242 46.64053246 10.33592639 54.54799828 2.3125 59.75 C-7.10291749 64.86244388 -16.77877225 65.21749476 -27.1328125 62.78125 C-35.47605371 60.03288819 -43.01677209 53.87445702 -47.03125 46.0625 C-51.02328383 36.93785124 -52.10510366 27.8546411 -48.875 18.3125 C-45.78263766 11.65505751 -41.95658015 6.44454135 -35.875 2.3125 C-35.215 1.82652344 -34.555 1.34054688 -33.875 0.83984375 C-24.18528406 -5.19940629 -10.10536033 -4.82756075 0 0 Z " fill="#fff" transform="translate(142.875,60.6875)"/>
<path d="M0 0 C3.8881936 0.80058301 7.1075838 2.36347593 10.56982422 4.25585938 C13.94885255 5.89207265 17.43998327 6.42395783 21.12890625 6.97265625 C21.91193115 7.09334473 22.69495605 7.2140332 23.50170898 7.33837891 C39.95808988 9.69715464 56.94129441 8.67350852 71.953125 1.11328125 C75.23216057 -0.0042376 77.26397077 0.26297414 80.56640625 1.22265625 C81.75390625 3.72265625 81.75390625 3.72265625 82.56640625 6.22265625 C83.55640625 6.55265625 84.54640625 6.88265625 85.56640625 7.22265625 C87.06640625 8.9296875 87.06640625 8.9296875 88.56640625 11.03515625 C89.06140625 11.72222656 89.55640625 12.40929687 90.06640625 13.1171875 C90.56140625 13.81199219 91.05640625 14.50679687 91.56640625 15.22265625 C92.39591797 16.26486328 92.39591797 16.26486328 93.2421875 17.328125 C94.56640625 19.22265625 94.56640625 19.22265625 94.75390625 21.72265625 C92.32484741 26.83646434 84.97393891 28.50615295 79.88671875 30.328125 C77.82375782 31.02848053 75.75859615 31.72238333 73.69140625 32.41015625 C72.66660156 32.76529297 71.64179688 33.12042969 70.5859375 33.48632812 C43.68117648 42.49446603 12.75321487 37.84410728 -12.87109375 27.03515625 C-15.83956584 25.52488098 -17.27408562 24.56707639 -19.43359375 22.22265625 C-17.97765561 16.42637421 -14.99365656 12.40361262 -11.37109375 7.78515625 C-10.83548828 7.04072266 -10.29988281 6.29628906 -9.74804688 5.52929688 C-6.82312194 1.80697759 -4.92825142 -0.35662889 0 0 Z " fill="#fff" transform="translate(89.43359375,151.77734375)"/>
<path d="M0 0 C3.20117671 0.49217058 4.56092537 1.13208087 7.0859375 3.08984375 C30.50858148 19.70858113 64.89870089 24.79437129 92.9609375 20.65234375 C94.98531413 20.2750499 97.00632318 19.8792122 99.0234375 19.46484375 C100.12429687 19.27019531 101.22515625 19.07554687 102.359375 18.875 C118.27252274 15.85328992 134.51006024 9.47376192 148.0234375 0.46484375 C150.39453125 -0.046875 150.39453125 -0.046875 153.0234375 0.46484375 C154.96400189 2.50707099 156.49114224 4.36737435 158.0859375 6.65234375 C158.93067652 7.81272797 159.77572454 8.97288731 160.62109375 10.1328125 C161.22268311 10.98431885 161.22268311 10.98431885 161.83642578 11.85302734 C162.92034938 13.32486272 164.12184576 14.70821959 165.33203125 16.078125 C167.0234375 18.46484375 167.0234375 18.46484375 167.45703125 21.10546875 C166.93303862 23.95674396 166.42422403 24.55706512 164.0859375 26.21484375 C150.56703596 35.49111129 135.46361119 41.73055436 119.7734375 46.21484375 C119.04068604 46.42592773 118.30793457 46.63701172 117.55297852 46.85449219 C109.38310366 49.0934184 101.40222222 49.62351965 92.9609375 49.52734375 C91.80561523 49.52057617 91.80561523 49.52057617 90.62695312 49.51367188 C88.7590797 49.50207018 86.89124724 49.48414374 85.0234375 49.46484375 C85.0234375 49.13484375 85.0234375 48.80484375 85.0234375 48.46484375 C85.75046875 48.42746094 86.4775 48.39007813 87.2265625 48.3515625 C95.82271198 47.78950657 103.85057562 46.18913104 112.0234375 43.46484375 C113.77144579 43.3145373 115.52198959 43.19258231 117.2734375 43.08984375 C122.16228187 42.68135941 125.71671009 41.80545647 130.0234375 39.46484375 C130.3534375 38.80484375 130.6834375 38.14484375 131.0234375 37.46484375 C132.1578125 37.36171875 133.2921875 37.25859375 134.4609375 37.15234375 C140.96692455 36.49706448 146.74461804 33.3726926 151.7109375 29.21484375 C154.73223658 26.92845526 157.30176901 26.75673932 161.0234375 26.46484375 C162.27720129 19.73207272 162.27720129 19.73207272 160.0234375 13.46484375 C157.66930984 10.86069661 157.66930984 10.86069661 155.0234375 8.46484375 C154.3840625 7.68109375 153.7446875 6.89734375 153.0859375 6.08984375 C151.04311218 4.11866663 151.04311218 4.11866663 147.8359375 4.58984375 C146.9078125 4.87859375 145.9796875 5.16734375 145.0234375 5.46484375 C144.6934375 6.12484375 144.3634375 6.78484375 144.0234375 7.46484375 C142.28125 8.28125 142.28125 8.28125 140.1484375 9.02734375 C139.10042969 9.40052734 139.10042969 9.40052734 138.03125 9.78125 C136.36414337 10.34884467 134.69414615 10.90794087 133.0234375 11.46484375 C133.0234375 12.12484375 133.0234375 12.78484375 133.0234375 13.46484375 C129.20023193 14.88743187 126.11062445 15.70526651 122.0234375 15.46484375 C122.0234375 16.12484375 122.0234375 16.78484375 122.0234375 17.46484375 C117.40110104 20.21326002 113.10790632 21.13744544 107.8046875 21.9375 C104.9982027 22.38510334 104.9982027 22.38510334 102.36401367 23.47900391 C98.4575042 24.63185674 94.82702227 24.76982485 90.79296875 24.765625 C89.61661865 24.77395607 89.61661865 24.77395607 88.41650391 24.78245544 C85.88945709 24.79421082 83.36298377 24.78799516 80.8359375 24.77734375 C79.54929703 24.77510803 79.54929703 24.77510803 78.23666382 24.77282715 C62.68152594 24.72395463 47.9034974 24.27729847 33.328125 18.23828125 C30.87887863 17.41633077 29.02936628 17.30180027 26.4609375 17.40234375 C24.759375 17.43328125 24.759375 17.43328125 23.0234375 17.46484375 C22.3634375 16.47484375 21.7034375 15.48484375 21.0234375 14.46484375 C19.36358952 13.78137693 17.69506945 13.1189606 16.0234375 12.46484375 C14.67710309 11.65268251 13.34458802 10.81735975 12.0234375 9.96484375 C6.83939719 6.45531571 6.83939719 6.45531571 0.8359375 5.71484375 C-1.18097799 6.41391589 -1.18097799 6.41391589 -2.9765625 8.46484375 C-3.9665625 8.46484375 -4.9565625 8.46484375 -5.9765625 8.46484375 C-6.24210937 9.05265625 -6.50765625 9.64046875 -6.78125 10.24609375 C-8.3530989 13.16377406 -10.4638608 15.2935788 -12.734375 17.68359375 C-14.35790434 19.64973889 -14.35790434 19.64973889 -13.9765625 23.46484375 C-9.70542552 25.64810483 -5.47453363 27.77810457 -0.9765625 29.46484375 C-0.9765625 30.12484375 -0.9765625 30.78484375 -0.9765625 31.46484375 C-0.43128906 31.64660156 0.11398438 31.82835937 0.67578125 32.015625 C1.80693359 32.39267578 1.80693359 32.39267578 2.9609375 32.77734375 C3.77820313 33.04933594 4.59546875 33.32132813 5.4375 33.6015625 C7.12084383 34.16352471 8.80319382 34.72847565 10.484375 35.296875 C11.26039062 35.55855469 12.03640625 35.82023437 12.8359375 36.08984375 C13.54363281 36.32960937 14.25132813 36.569375 14.98046875 36.81640625 C17.01225151 37.49448431 17.01225151 37.49448431 19.09765625 37.92578125 C21.0234375 38.46484375 21.0234375 38.46484375 24.0234375 40.46484375 C24.0234375 41.12484375 24.0234375 41.78484375 24.0234375 42.46484375 C25.6940625 42.43390625 25.6940625 42.43390625 27.3984375 42.40234375 C31.0234375 42.46484375 31.0234375 42.46484375 33.0234375 43.46484375 C33.0234375 44.12484375 33.0234375 44.78484375 33.0234375 45.46484375 C33.57386719 45.43003906 34.12429687 45.39523438 34.69140625 45.359375 C44.92022701 45.02634363 54.95162627 46.88275169 65.0234375 48.46484375 C65.0234375 48.79484375 65.0234375 49.12484375 65.0234375 49.46484375 C39.74310782 50.04898487 17.20060759 43.49049881 -5.1640625 31.83984375 C-5.88335937 31.46762695 -6.60265625 31.09541016 -7.34375 30.71191406 C-11.07730775 28.71179384 -14.28036945 26.82460763 -16.9765625 23.46484375 C-16.87477352 19.49507352 -15.18581361 16.69374921 -12.9765625 13.46484375 C-12.51636719 13.02785156 -12.05617188 12.59085938 -11.58203125 12.140625 C-8.87861966 9.31881583 -7.02638009 5.8676934 -4.98828125 2.546875 C-2.9765625 0.46484375 -2.9765625 0.46484375 0 0 Z " fill="#75D1D6" transform="translate(51.9765625,199.53515625)"/>
<path d="M0 0 C1.09452484 -0.00761353 2.18904968 -0.01522705 3.31674194 -0.02307129 C5.61755107 -0.03380006 7.9184086 -0.03675512 10.21923828 -0.03222656 C13.68217145 -0.03125805 17.14285622 -0.07288969 20.60546875 -0.1171875 C33.92377771 -0.18772516 45.52178902 0.98546547 58.0859375 5.46875 C59.07392334 5.81123779 60.06190918 6.15372559 61.07983398 6.5065918 C73.60742719 11.02982198 87.78701038 18.74351103 97.0859375 28.46875 C98.92934701 30.02005608 100.79134959 31.54582443 102.66015625 33.06640625 C103.13066406 33.52917969 103.60117188 33.99195313 104.0859375 34.46875 C104.0859375 35.12875 104.0859375 35.78875 104.0859375 36.46875 C104.69050781 36.73816406 105.29507813 37.00757813 105.91796875 37.28515625 C109.43594856 39.20578306 111.59091903 42.40819401 114.0859375 45.46875 C114.76914063 46.2421875 115.45234375 47.015625 116.15625 47.8125 C122.2348734 54.84421766 126.67316482 62.31990087 131.02050781 70.47753906 C132.05395763 72.40898193 133.10875067 74.32694832 134.171875 76.2421875 C141.81933636 90.13247445 141.81933636 90.13247445 139.5078125 98.58203125 C135.32953217 109.88238033 128.66181622 120.70967545 121.5859375 130.40625 C120.23558015 132.26299135 118.99610343 134.15186881 117.7734375 136.09375 C117.2165625 136.8775 116.6596875 137.66125 116.0859375 138.46875 C115.4259375 138.46875 114.7659375 138.46875 114.0859375 138.46875 C113.745625 139.5515625 113.745625 139.5515625 113.3984375 140.65625 C111.82188664 144.03457327 109.77607175 145.90671738 107.0859375 148.46875 C106.4878125 149.2525 105.8896875 150.03625 105.2734375 150.84375 C102.27346571 154.44371614 98.97690539 157.83170731 95.0859375 160.46875 C93.7659375 160.46875 92.4459375 160.46875 91.0859375 160.46875 C87.0859375 156.24652778 87.0859375 156.24652778 87.0859375 153.46875 C86.4259375 153.46875 85.7659375 153.46875 85.0859375 153.46875 C84.8178125 152.664375 84.5496875 151.86 84.2734375 151.03125 C83.8815625 150.185625 83.4896875 149.34 83.0859375 148.46875 C82.0959375 148.13875 81.1059375 147.80875 80.0859375 147.46875 C82.0859375 146.46875 82.0859375 146.46875 84.6484375 147.09375 C87.0859375 148.46875 87.0859375 148.46875 87.8984375 151.09375 C87.9603125 151.8775 88.0221875 152.66125 88.0859375 153.46875 C88.7459375 153.46875 89.4059375 153.46875 90.0859375 153.46875 C90.0859375 154.45875 90.0859375 155.44875 90.0859375 156.46875 C91.4059375 156.79875 92.7259375 157.12875 94.0859375 157.46875 C94.9109375 156.458125 95.7359375 155.4475 96.5859375 154.40625 C99.53399657 150.94700729 102.75505259 148.03608881 106.25390625 145.14453125 C110.03673286 141.68433377 111.63892514 138.36633028 113.0859375 133.46875 C114.0759375 133.46875 115.0659375 133.46875 116.0859375 133.46875 C116.1478125 132.911875 116.2096875 132.355 116.2734375 131.78125 C117.41419655 128.53447423 119.66203658 126.89265092 122.0859375 124.46875 C124.88896087 120.40722634 126.56497484 116.14027816 128.0859375 111.46875 C128.7459375 110.80875 129.4059375 110.14875 130.0859375 109.46875 C130.4159375 109.46875 130.7459375 109.46875 131.0859375 109.46875 C131.488125 107.8909375 131.488125 107.8909375 131.8984375 106.28125 C132.95845969 102.87802088 133.99982054 100.33716082 136.0859375 97.46875 C136.7459375 97.46875 137.4059375 97.46875 138.0859375 97.46875 C137.63147786 96.05083592 137.17218806 94.63446954 136.7109375 93.21875 C136.45570313 92.42984375 136.20046875 91.6409375 135.9375 90.828125 C135.15083805 88.47673567 135.15083805 88.47673567 134.0078125 86.4296875 C132.99785853 84.28139558 132.82739138 82.6997015 132.7109375 80.34375 C132.5046875 79.065 132.2984375 77.78625 132.0859375 76.46875 C130.15263147 75.37708725 130.15263147 75.37708725 128.0859375 74.46875 C127.5907877 72.81825067 127.10617653 71.16252279 126.71484375 69.484375 C125.56362024 65.7947394 123.41707029 62.53209757 121.0859375 59.46875 C120.4259375 59.13875 119.7659375 58.80875 119.0859375 58.46875 C118.2877789 57.12113439 117.54583307 55.73987796 116.8359375 54.34375 C112.47878366 46.26208408 112.47878366 46.26208408 105.0859375 41.46875 C104.05580473 39.82053756 103.05479122 38.15371298 102.0859375 36.46875 C101.4259375 36.13875 100.7659375 35.80875 100.0859375 35.46875 C100.0859375 34.80875 100.0859375 34.14875 100.0859375 33.46875 C97.7759375 33.46875 95.4659375 33.46875 93.0859375 33.46875 C93.0859375 31.48875 93.0859375 29.50875 93.0859375 27.46875 C91.9721875 27.283125 91.9721875 27.283125 90.8359375 27.09375 C88.20800115 26.49649174 86.33327763 25.94114526 84.0859375 24.46875 C83.7146875 23.5096875 83.7146875 23.5096875 83.3359375 22.53125 C81.29599152 19.16533914 77.72068111 18.58453176 74.0859375 17.46875 C74.0859375 16.80875 74.0859375 16.14875 74.0859375 15.46875 C72.4359375 15.46875 70.7859375 15.46875 69.0859375 15.46875 C68.5909375 13.48875 68.5909375 13.48875 68.0859375 11.46875 C67.5290625 11.35917969 66.9721875 11.24960938 66.3984375 11.13671875 C62.4663938 10.31975697 58.75004496 9.41763752 55.0234375 7.90625 C51.68427494 6.58380938 48.63621964 6.05375257 45.07421875 5.71484375 C43.0859375 5.46875 43.0859375 5.46875 39.2734375 4.46875 C22.83840858 0.17695143 1.57148165 0.59404546 -14.9140625 4.46875 C-15.86925781 4.68660156 -16.82445312 4.90445312 -17.80859375 5.12890625 C-24.98170954 6.92463838 -31.87984233 9.20922434 -37.8515625 13.65625 C-42.08406781 16.16120212 -46.0708943 16.27732043 -50.9140625 16.46875 C-39.84905997 4.31481072 -15.62470713 0.00308828 0 0 Z " fill="#7CD1D8" transform="translate(112.9140625,-0.46875)"/>
<path d="M0 0 C5.42704641 2.13205394 7.87310653 6.34056998 10.25 11.4375 C13.24896174 19.42283066 13.32549898 28.27361106 10.4375 36.3125 C6.1309219 45.45084866 0.29295362 51.86358756 -9 56 C-17.93455172 59.08778107 -28.41287482 58.74066588 -37.12890625 55.0078125 C-45.81786234 50.32774847 -51.78844736 43.9342161 -55.2109375 34.640625 C-57.80090312 25.97321529 -57.66913253 17.36056978 -53.59765625 9.18359375 C-49.58989468 2.29494734 -49.58989468 2.29494734 -47 1 C-47.43338746 2.35548844 -47.87197995 3.70931276 -48.3125 5.0625 C-48.55613281 5.81660156 -48.79976562 6.57070312 -49.05078125 7.34765625 C-50 10 -50 10 -51.609375 13.28125 C-53.24475263 17.65450703 -53.30223882 20.8528715 -52.9375 25.4375 C-52.88730713 26.18523682 -52.83711426 26.93297363 -52.78540039 27.70336914 C-52.30784065 33.27043819 -51.01184884 37.2393357 -48 42 C-48 42.66 -48 43.32 -48 44 C-47.4225 44.268125 -46.845 44.53625 -46.25 44.8125 C-43.94449957 46.02929189 -41.97943808 47.30333879 -40 49 C-40 49.66 -40 50.32 -40 51 C-31.72424913 54.54675037 -23.85946055 54.53259185 -15 54 C-14.34 53.67 -13.68 53.34 -13 53 C-13 52.34 -13 51.68 -13 51 C-11.7625 50.87625 -10.525 50.7525 -9.25 50.625 C-6.1476773 50.22965976 -3.59344703 49.86728186 -1 48 C-0.67 47.01 -0.34 46.02 0 45 C2.0625 44.3125 2.0625 44.3125 4 44 C4.185625 42.6078125 4.185625 42.6078125 4.375 41.1875 C5 38 5 38 7 35 C8.83273442 26.75269513 8.95140745 17.20830118 7 9 C6.34 9 5.68 9 5 9 C3.7109375 7.5390625 3.7109375 7.5390625 2.375 5.625 C1.92898437 4.99851562 1.48296875 4.37203125 1.0234375 3.7265625 C0 2 0 2 0 0 Z " fill="#74CDD3" transform="translate(149,67)"/>
<path d="M0 0 C0.98109489 0.03610382 0.98109489 0.03610382 1.98200989 0.07293701 C3.35639689 0.12634634 4.7305097 0.18728917 6.10424805 0.25537109 C8.2104149 0.35954236 10.31654404 0.44154727 12.42382812 0.51953125 C22.67852031 0.93886953 22.67852031 0.93886953 25.01953125 2.109375 C25.01953125 2.769375 25.01953125 3.429375 25.01953125 4.109375 C25.55578125 4.12355469 26.09203125 4.13773438 26.64453125 4.15234375 C35.19847643 4.67289634 42.95674328 7.39843761 51.01953125 10.109375 C51.01953125 10.769375 51.01953125 11.429375 51.01953125 12.109375 C53.65953125 12.769375 56.29953125 13.429375 59.01953125 14.109375 C59.01953125 14.769375 59.01953125 15.429375 59.01953125 16.109375 C59.72078125 16.33625 60.42203125 16.563125 61.14453125 16.796875 C64.7608166 18.44778788 67.10723101 20.4002585 70.01953125 23.109375 C70.01953125 23.769375 70.01953125 24.429375 70.01953125 25.109375 C67.10829796 23.7320875 64.53174984 22.14098173 61.89453125 20.296875 C40.0895792 5.68932989 13.73844932 1.87523774 -11.82958984 6.62426758 C-26.80292522 9.7900081 -39.70312464 17.2153491 -51.98046875 26.109375 C-52.64046875 25.449375 -53.30046875 24.789375 -53.98046875 24.109375 C-53.17609375 23.490625 -52.37171875 22.871875 -51.54296875 22.234375 C-48.94172356 20.36773459 -48.94172356 20.36773459 -47.98046875 18.109375 C-46.01953125 17.0390625 -46.01953125 17.0390625 -43.60546875 15.984375 C-42.81398438 15.63117187 -42.0225 15.27796875 -41.20703125 14.9140625 C-38.98046875 14.109375 -38.98046875 14.109375 -35.98046875 14.109375 C-35.98046875 13.449375 -35.98046875 12.789375 -35.98046875 12.109375 C-29.26168271 8.33199299 -22.64861853 5.99179589 -15.1796875 4.1015625 C-12.00340752 3.28990362 -12.00340752 3.28990362 -9.71679688 1.55419922 C-6.23294744 -0.28532799 -3.92030381 -0.16493439 0 0 Z " fill="#72CDD3" transform="translate(117.98046875,21.890625)"/>
<path d="M0 0 C1.01449219 0.32097656 2.02898437 0.64195312 3.07421875 0.97265625 C3.40421875 1.96265625 3.73421875 2.95265625 4.07421875 3.97265625 C2.71876953 3.82570312 2.71876953 3.82570312 1.3359375 3.67578125 C-2.02607483 3.64931176 -2.02607483 3.64931176 -4.15625 6.01953125 C-4.80207031 6.9115625 -5.44789062 7.80359375 -6.11328125 8.72265625 C-6.76683594 9.604375 -7.42039062 10.48609375 -8.09375 11.39453125 C-9.25130846 13.02350478 -10.40085196 14.65823045 -11.5390625 16.30078125 C-11.99667969 16.8525 -12.45429687 17.40421875 -12.92578125 17.97265625 C-13.58578125 17.97265625 -14.24578125 17.97265625 -14.92578125 17.97265625 C-12.81354564 22.08595717 -11.03555637 23.88984902 -6.92578125 25.97265625 C-4.31408892 26.72121295 -1.75832462 27.38263664 0.88671875 27.97265625 C9.53915396 30.00420813 9.53915396 30.00420813 13.69921875 31.66015625 C21.40178185 34.65559745 29.36688507 34.15612216 37.51171875 34.16015625 C38.80916016 34.17240234 40.10660156 34.18464844 41.44335938 34.19726562 C42.70212891 34.19919922 43.96089844 34.20113281 45.2578125 34.203125 C46.39790771 34.20723389 47.53800293 34.21134277 48.71264648 34.21557617 C52.39651249 33.94936609 55.55381466 33.06359181 59.07421875 31.97265625 C61.54655916 31.55501376 64.02634601 31.17903928 66.51171875 30.84765625 C67.74792969 30.68007812 68.98414063 30.5125 70.2578125 30.33984375 C71.18722656 30.21867187 72.11664063 30.0975 73.07421875 29.97265625 C73.56921875 30.96265625 73.56921875 30.96265625 74.07421875 31.97265625 C72.28770917 32.63262113 70.49461284 33.27475859 68.69921875 33.91015625 C67.70148438 34.26980469 66.70375 34.62945312 65.67578125 35 C39.53288371 42.06028361 7.95515166 37.12260457 -15.92578125 24.97265625 C-16.95801347 24.00596258 -17.96764413 23.01283569 -18.92578125 21.97265625 C-17.47736934 16.13288084 -14.41655763 12.15062593 -10.73828125 7.53515625 C-9.90973633 6.41850586 -9.90973633 6.41850586 -9.06445312 5.27929688 C-4.84053496 -0.03371517 -4.84053496 -0.03371517 0 0 Z M9.07421875 28.97265625 C11.07421875 29.97265625 11.07421875 29.97265625 11.07421875 29.97265625 Z " fill="#67C9CE" transform="translate(88.92578125,152.02734375)"/>
<path d="M0 0 C1.1875 2.5 1.1875 2.5 2 5 C2.99 5.33 3.98 5.66 5 6 C6.5 7.70703125 6.5 7.70703125 8 9.8125 C8.495 10.49957031 8.99 11.18664062 9.5 11.89453125 C9.995 12.58933594 10.49 13.28414062 11 14 C11.82951172 15.04220703 11.82951172 15.04220703 12.67578125 16.10546875 C14 18 14 18 14.1875 20.5 C12.28870835 24.49745611 9.00899961 25.47956903 5 27 C1.69101096 28.09830274 -1.63467504 29.08970718 -5 30 C-5 29.34 -5 28.68 -5 28 C-4.06027344 27.52820313 -4.06027344 27.52820313 -3.1015625 27.046875 C-2.28429687 26.61890625 -1.46703125 26.1909375 -0.625 25.75 C0.18710938 25.33234375 0.99921875 24.9146875 1.8359375 24.484375 C4.20801205 22.85732025 4.97094804 21.64613361 6 19 C7.98 19.495 7.98 19.495 10 20 C8.67461876 16.02385628 6.98769086 13.88810116 4 11 C4 10.34 4 9.68 4 9 C2.68 9 1.36 9 0 9 C-0.99 6.525 -0.99 6.525 -2 4 C-7.73892776 3.59007659 -10.40547958 4.18380861 -15.515625 6.9765625 C-30.75594415 13.25480718 -52.53280233 11.20527258 -68 7 C-69.62454417 6.60230002 -71.24946717 6.20613948 -72.875 5.8125 C-74.421875 5.4103125 -74.421875 5.4103125 -76 5 C-75.67 4.01 -75.34 3.02 -75 2 C-73.865625 2.27714844 -72.73125 2.55429688 -71.5625 2.83984375 C-70.04172152 3.20595709 -68.52088505 3.57182963 -67 3.9375 C-65.88431641 4.21110352 -65.88431641 4.21110352 -64.74609375 4.49023438 C-46.20752426 8.92337056 -25.87304362 8.58295105 -8.61328125 -0.109375 C-5.33424568 -1.22689385 -3.30243548 -0.95968211 0 0 Z " fill="#79D2D8" transform="translate(170,153)"/>
<path d="M0 0 C3.87142798 1.29047599 4.72332925 3.01142726 7.0625 6.3125 C7.75472656 7.27800781 8.44695312 8.24351563 9.16015625 9.23828125 C11 12 11 12 12.12109375 14.29296875 C12.88437977 16.18822969 12.88437977 16.18822969 15 17 C16.02611949 18.65071396 17.02308143 20.31970006 18 22 C18.51304687 22.60714844 19.02609375 23.21429688 19.5546875 23.83984375 C21.28418743 26.42474499 21.48480112 28.168977 21.6875 31.25 C21.75324219 32.14203125 21.81898438 33.0340625 21.88671875 33.953125 C21.94279297 34.96632813 21.94279297 34.96632813 22 36 C21.01 36 20.02 36 19 36 C18.67386719 36.59167969 18.34773438 37.18335938 18.01171875 37.79296875 C16.68110902 40.19905656 15.34072604 42.5995384 14 45 C13.443125 46.010625 12.88625 47.02125 12.3125 48.0625 C11.879375 48.701875 11.44625 49.34125 11 50 C10.34 50 9.68 50 9 50 C8.67 51.32 8.34 52.64 8 54 C7.34 54 6.68 54 6 54 C5.71125 54.5775 5.4225 55.155 5.125 55.75 C4.08333333 57.83333333 3.04166667 59.91666667 2 62 C1.34 62 0.68 62 0 62 C-0.33 63.32 -0.66 64.64 -1 66 C-1.66 66 -2.32 66 -3 66 C-3.25652344 66.59941406 -3.51304687 67.19882813 -3.77734375 67.81640625 C-5.11447456 70.20444498 -6.39300571 71.30245316 -8.5625 72.9375 C-11.09208282 75.00000217 -11.89783873 75.68670543 -12.9375 78.875 C-12.958125 79.57625 -12.97875 80.2775 -13 81 C-13.66 81 -14.32 81 -15 81 C-15.75 78.8125 -15.75 78.8125 -16 76 C-14.16778507 73.1812078 -12.02373093 71.02369151 -9.6484375 68.65234375 C-2.02076735 61.01342335 4.35440271 53.43441054 9.9921875 44.26171875 C11.33460897 42.08093678 12.74386137 39.93996474 14.21484375 37.84375 C16.38791633 34.38205013 16.77026971 32.46513522 16.5703125 28.47265625 C15.37651896 23.29682536 12.06221951 19.24383681 9 15 C7.75728419 13.23532357 6.52130451 11.466171 5.28881836 9.69433594 C4.48149141 8.53775127 3.66734852 7.38588978 2.84594727 6.23925781 C0 2.21868463 0 2.21868463 0 0 Z " fill="#8BD1D7" transform="translate(205,62)"/>
<path d="M0 0 C2.99550858 2.78892179 4.91544977 5.50110954 7 9 C13.53750929 18.66465723 20.3757756 28.00327492 29.125 35.8125 C31 38 31 38 31.0625 40.4375 C28.80931803 45.87164474 24.92712827 50.62162004 21.5 55.375 C20.37078125 56.96441406 20.37078125 56.96441406 19.21875 58.5859375 C18.4865625 59.38257813 17.754375 60.17921875 17 61 C11.67373311 61 10.757879 59.58706631 7 56 C7 55.34 7 54.68 7 54 C6.01 53.67 5.02 53.34 4 53 C2.53515625 51.29296875 2.53515625 51.29296875 1.0625 49.1875 C-0.66549233 46.77865283 -2.26934665 44.73065335 -4.375 42.625 C-4.91125 42.08875 -5.4475 41.5525 -6 41 C-6 40.34 -6 39.68 -6 39 C-6.66 38.67 -7.32 38.34 -8 38 C-3.11117561 38.84290076 -0.96622719 41.95712793 2.1875 45.5625 C2.71730469 46.16191406 3.24710938 46.76132813 3.79296875 47.37890625 C5 49 5 49 5 51 C5.5775 51.268125 6.155 51.53625 6.75 51.8125 C9.05550043 53.02929189 11.02056192 54.30333879 13 56 C13 56.66 13 57.32 13 58 C17.85013723 55.86023358 19.85140896 52.54960204 22.57421875 48.22265625 C24 46 24 46 26.375 43.0625 C28.20629074 41.17579343 28.20629074 41.17579343 28 39 C24.48313045 35.18168448 20.68307447 31.34153724 16 29 C15.375 26.4375 15.375 26.4375 15 24 C14.34 24 13.68 24 13 24 C11.66796875 22.2421875 11.66796875 22.2421875 10.1875 19.875 C8.34504648 17.0009527 6.50855361 14.31014089 4.25 11.75 C0.95443601 7.72208846 0 5.19852285 0 0 Z " fill="#80CFD6" transform="translate(33,99)"/>
<path d="M0 0 C0.33 0 0.66 0 1 0 C1.27338445 5.37656087 1.38994303 8.56699758 -2 13 C-2.66 13.66 -3.32 14.32 -4 15 C-7.82286279 20.73429418 -8.65252608 27.25723053 -8 34 C-6.12821884 37.18288354 -6.12821884 37.18288354 -4 40 C-3.25 42.875 -3.25 42.875 -3 45 C-2.34 45 -1.68 45 -1 45 C-1 45.66 -1 46.32 -1 47 C-2.796875 46.87109375 -2.796875 46.87109375 -5 46 C-9.58216806 39.03216187 -12.58858092 31.3366554 -11 23 C-9.22445526 16.93120687 -6.306973 11.4598069 -3.1484375 6.0078125 C-2.02160271 4.037768 -0.99643842 2.03858502 0 0 Z " fill="#65D0D9" transform="translate(12,65)"/>
<path d="M0 0 C1.01449219 0.32097656 2.02898437 0.64195312 3.07421875 0.97265625 C3.40421875 1.96265625 3.73421875 2.95265625 4.07421875 3.97265625 C2.71876953 3.82570312 2.71876953 3.82570312 1.3359375 3.67578125 C-2.02607483 3.64931176 -2.02607483 3.64931176 -4.15625 6.01953125 C-4.80207031 6.9115625 -5.44789062 7.80359375 -6.11328125 8.72265625 C-6.76683594 9.604375 -7.42039062 10.48609375 -8.09375 11.39453125 C-9.25130846 13.02350478 -10.40085196 14.65823045 -11.5390625 16.30078125 C-11.99667969 16.8525 -12.45429687 17.40421875 -12.92578125 17.97265625 C-13.58578125 17.97265625 -14.24578125 17.97265625 -14.92578125 17.97265625 C-13.27578125 20.94265625 -11.62578125 23.91265625 -9.92578125 26.97265625 C-13.70123513 25.88196957 -16.39621597 25.06434715 -18.92578125 21.97265625 C-17.47736934 16.13288084 -14.41655763 12.15062593 -10.73828125 7.53515625 C-9.90973633 6.41850586 -9.90973633 6.41850586 -9.06445312 5.27929688 C-4.84053496 -0.03371517 -4.84053496 -0.03371517 0 0 Z " fill="#69D7E1" transform="translate(88.92578125,152.02734375)"/>
<path d="M0 0 C2.03584968 2.08340237 3.63439338 3.97309507 5.3125 6.3125 C5.76689453 6.90740234 6.22128906 7.50230469 6.68945312 8.11523438 C10 12.57078242 10 12.57078242 10 16 C9.01 16.495 9.01 16.495 8 17 C7.938125 16.443125 7.87625 15.88625 7.8125 15.3125 C6.65552926 12.01958329 4.5346398 10.35780446 2 8 C1.360625 7.21625 0.72125 6.4325 0.0625 5.625 C-1.98032532 3.65382288 -1.98032532 3.65382288 -5.1875 4.125 C-6.5796875 4.558125 -6.5796875 4.558125 -8 5 C-8.33 5.66 -8.66 6.32 -9 7 C-10.7421875 7.81640625 -10.7421875 7.81640625 -12.875 8.5625 C-13.57367188 8.81128906 -14.27234375 9.06007812 -14.9921875 9.31640625 C-16.65929413 9.88400092 -18.32929135 10.44309712 -20 11 C-20 11.66 -20 12.32 -20 13 C-27.44230769 15.23269231 -27.44230769 15.23269231 -30.265625 14.0546875 C-30.83796875 13.70664063 -31.4103125 13.35859375 -32 13 C-31.44054687 12.79246094 -30.88109375 12.58492187 -30.3046875 12.37109375 C-22.21831758 9.26395161 -7.98658038 -1.56900324 0 0 Z " fill="#86D5D9" transform="translate(205,200)"/>
<path d="M0 0 C1.93833996 0.08715017 3.8757429 0.19532964 5.8125 0.3125 C7.43091797 0.39951172 7.43091797 0.39951172 9.08203125 0.48828125 C12.17910163 1.03140872 13.21332071 1.4610347 15 4 C15 4.66 15 5.32 15 6 C16.670625 5.9690625 16.670625 5.9690625 18.375 5.9375 C22 6 22 6 24 7 C24 7.66 24 8.32 24 9 C24.82564453 8.94779297 24.82564453 8.94779297 25.66796875 8.89453125 C35.89678951 8.56149988 45.92818877 10.41790794 56 12 C56 12.33 56 12.66 56 13 C36.4899695 13.45080943 17.17744698 10.91818192 0 1 C0 0.67 0 0.34 0 0 Z " fill="#6ACED4" transform="translate(61,236)"/>
<path d="M0 0 C3.87142798 1.29047599 4.72332925 3.01142726 7.0625 6.3125 C7.75472656 7.27800781 8.44695312 8.24351563 9.16015625 9.23828125 C11 12 11 12 12.12109375 14.29296875 C12.88437977 16.18822969 12.88437977 16.18822969 15 17 C16.02611949 18.65071396 17.02308143 20.31970006 18 22 C18.51304687 22.60714844 19.02609375 23.21429688 19.5546875 23.83984375 C21.28418743 26.42474499 21.48480112 28.168977 21.6875 31.25 C21.75324219 32.14203125 21.81898438 33.0340625 21.88671875 33.953125 C21.92410156 34.62859375 21.96148437 35.3040625 22 36 C20.515 35.505 20.515 35.505 19 35 C18.296875 33.3203125 18.296875 33.3203125 17.75 31.125 C15.4899172 23.73895622 10.92965854 17.75082464 6.54296875 11.48046875 C5.92542725 10.59633301 5.92542725 10.59633301 5.29541016 9.69433594 C4.48436256 8.53863326 3.66776476 7.38680237 2.84521484 6.23925781 C0 2.21709677 0 2.21709677 0 0 Z " fill="#5FD1D9" transform="translate(205,62)"/>
<path d="M0 0 C1.16582108 0.00666183 1.16582108 0.00666183 2.35519409 0.01345825 C3.23595612 0.01360931 4.11671814 0.01376038 5.02416992 0.01391602 C6.4523555 0.02939987 6.4523555 0.02939987 7.90939331 0.04519653 C9.37008743 0.04944138 9.37008743 0.04944138 10.86029053 0.05377197 C13.9783443 0.0649899 17.09611349 0.09009734 20.21408081 0.11550903 C22.32475375 0.12553675 24.43543119 0.13466296 26.54611206 0.14285278 C31.72719916 0.16493445 36.90811966 0.19842774 42.08908081 0.24050903 C42.08908081 0.90050903 42.08908081 1.56050903 42.08908081 2.24050903 C42.68720581 2.38488403 43.28533081 2.52925903 43.90158081 2.67800903 C45.65058486 3.12775293 47.37585104 3.66943244 49.08908081 4.24050903 C48.75908081 4.90050903 48.42908081 5.56050903 48.08908081 6.24050903 C47.4226355 6.0355481 46.75619019 5.83058716 46.06954956 5.61941528 C45.14786987 5.35000122 44.22619019 5.08058716 43.27658081 4.80300903 C42.3832605 4.5361731 41.48994019 4.26933716 40.56954956 3.99441528 C30.64039192 1.84365499 20.51062025 2.11389762 10.40158081 2.17800903 C9.00640014 2.18303876 7.6112177 2.18759904 6.21603394 2.19168091 C2.84033644 2.20336152 -0.53526745 2.21974071 -3.91091919 2.24050903 C-1.91091919 0.24050903 -1.91091919 0.24050903 0 0 Z " fill="#67D7DC" transform="translate(110.91091918945313,-0.240509033203125)"/>
<path d="M0 0 C1 3 1 3 1 5 C-0.48834815 6.19067852 -1.97746827 7.38042197 -3.47265625 8.5625 C-5.7155062 10.6734176 -6.73921025 13.22626254 -8 16 C-8.66 16.33 -9.32 16.66 -10 17 C-10.44472656 17.92039062 -10.44472656 17.92039062 -10.8984375 18.859375 C-12.15349078 21.29827286 -13.50933995 22.52612885 -15.625 24.25 C-16.25664062 24.77078125 -16.88828125 25.2915625 -17.5390625 25.828125 C-18.02117188 26.21484375 -18.50328125 26.6015625 -19 27 C-19 23.40941456 -18.10368497 22.25212529 -16.125 19.3125 C-15.59132813 18.50425781 -15.05765625 17.69601563 -14.5078125 16.86328125 C-14.01023437 16.24839844 -13.51265625 15.63351563 -13 15 C-12.34 15 -11.68 15 -11 15 C-10.34 13.35 -9.68 11.7 -9 10 C-8.34 10 -7.68 10 -7 10 C-6.773125 9.278125 -6.54625 8.55625 -6.3125 7.8125 C-4.75168987 4.46790687 -2.6968713 2.48396041 0 0 Z " fill="#6FCBD5" transform="translate(33,38)"/>
<path d="M0 0 C1.228396 0.05124023 2.45679199 0.10248047 3.72241211 0.15527344 C4.70775185 0.19137726 4.70775185 0.19137726 5.71299744 0.22821045 C7.09932768 0.28179659 8.48538896 0.34278247 9.87109375 0.41064453 C11.99501002 0.51441656 14.11889901 0.59662012 16.24389648 0.67480469 C26.59911713 1.09557907 26.59911713 1.09557907 28.93725586 2.26464844 C28.93725586 2.92464844 28.93725586 3.58464844 28.93725586 4.26464844 C17.38725586 3.93464844 5.83725586 3.60464844 -6.06274414 3.26464844 C-3.06274414 0.26464844 -3.06274414 0.26464844 0 0 Z " fill="#5ED2D7" transform="translate(114.062744140625,21.7353515625)"/>
<path d="M0 0 C0.33 1.32 0.66 2.64 1 4 C0.2575 4.28875 -0.485 4.5775 -1.25 4.875 C-3.56739797 5.82302644 -5.77917115 6.84845911 -8 8 C-8 8.66 -8 9.32 -8 10 C-11.33333333 11.66666667 -14.66666667 13.33333333 -18 15 C-18 15.66 -18 16.32 -18 17 C-19.53125 18.2890625 -19.53125 18.2890625 -21.5 19.625 C-22.1496875 20.07101563 -22.799375 20.51703125 -23.46875 20.9765625 C-23.9740625 21.31429687 -24.479375 21.65203125 -25 22 C-25.66 21.67 -26.32 21.34 -27 21 C-26.52949219 20.60167969 -26.05898438 20.20335938 -25.57421875 19.79296875 C-24.95160156 19.26316406 -24.32898437 18.73335937 -23.6875 18.1875 C-23.07261719 17.66542969 -22.45773438 17.14335938 -21.82421875 16.60546875 C-20.70605479 15.62138869 -19.61251393 14.60723482 -18.56640625 13.546875 C-13.07568172 8.12461337 -6.82902338 3.56296872 0 0 Z " fill="#7CD0D6" transform="translate(61,16)"/>
<path d="M0 0 C0.99 0.33 1.98 0.66 3 1 C2.43410156 1.77085938 1.86820313 2.54171875 1.28515625 3.3359375 C0.55167969 4.33882813 -0.18179688 5.34171875 -0.9375 6.375 C-2.03384766 7.87160156 -2.03384766 7.87160156 -3.15234375 9.3984375 C-4.9779569 11.82817109 -4.9779569 11.82817109 -6 14 C-6.66 14 -7.32 14 -8 14 C-8.2475 14.845625 -8.495 15.69125 -8.75 16.5625 C-10.14456397 20.39755092 -11.92067165 23.49113341 -14 27 C-14.6802367 28.32646156 -15.35492261 29.65608877 -16 31 C-16 28.69 -16 26.38 -16 24 C-15.34 24 -14.68 24 -14 24 C-13.87625 23.443125 -13.7525 22.88625 -13.625 22.3125 C-12.27037625 17.30039213 -10.27860725 14.01893792 -7 10 C-6.67 9.01 -6.34 8.02 -6 7 C-5.34 6.67 -4.68 6.34 -4 6 C-3.67 5.01 -3.34 4.02 -3 3 C-2.34 3 -1.68 3 -1 3 C-0.67 2.01 -0.34 1.02 0 0 Z " fill="#7ACDD0" transform="translate(46,64)"/>
<path d="M0 0 C5.57142857 5.14285714 5.57142857 5.14285714 6 9 C6.66 9 7.32 9 8 9 C8 9.99 8 10.98 8 12 C8.66 12 9.32 12 10 12 C11.2890625 13.53125 11.2890625 13.53125 12.625 15.5 C13.29402344 16.47453125 13.29402344 16.47453125 13.9765625 17.46875 C14.31429688 17.9740625 14.65203125 18.479375 15 19 C14.34 20.32 13.68 21.64 13 23 C11.39438174 20.60512849 9.79046593 18.20914587 8.1875 15.8125 C7.73568359 15.13896484 7.28386719 14.46542969 6.81835938 13.77148438 C0 3.56882984 0 3.56882984 0 0 Z " fill="#79D0D8" transform="translate(11,114)"/>
<path d="M0 0 C0.33 0.66 0.66 1.32 1 2 C0.328125 3.8828125 0.328125 3.8828125 -0.75 6.125 C-1.12253906 6.93582031 -1.49507813 7.74664062 -1.87890625 8.58203125 C-2.24886719 9.37996094 -2.61882812 10.17789063 -3 11 C-6.03741159 17.56133499 -6.65223583 23.80487915 -7 31 C-7.33 31 -7.66 31 -8 31 C-9.87001915 19.12285136 -7.85982255 10.89974392 -1 1 C-0.67 0.67 -0.34 0.34 0 0 Z " fill="#98D7E0" transform="translate(101,68)"/>
<path d="M0 0 C-0.598125 0.268125 -1.19625 0.53625 -1.8125 0.8125 C-4.02388919 1.8603693 -4.02388919 1.8603693 -5.41015625 3.53125 C-10.88214436 8.58645278 -25.82116468 6.07417855 -33 6 C-33 5.67 -33 5.34 -33 5 C-32.27296875 4.96261719 -31.5459375 4.92523438 -30.796875 4.88671875 C-20.35718681 4.20412375 -10.27932014 -0.22842934 0 0 Z " fill="#6BCFD4" transform="translate(170,243)"/>
<path d="M0 0 C0.66 0.33 1.32 0.66 2 1 C1.67 1.99 1.34 2.98 1 4 C0.34 4 -0.32 4 -1 4 C-1.85637238 6.92593895 -2.38673104 9.08174288 -1.17578125 11.95703125 C-0.17852152 13.67511732 0.90572915 15.34201387 2 17 C-1.77545388 15.90931332 -4.47043472 15.0916909 -7 12 C-5.63855967 6.80177328 -3.53269829 3.90456127 0 0 Z " fill="#7ECFD7" transform="translate(77,162)"/>
<path d="M0 0 C0.33 0 0.66 0 1 0 C1.02578125 0.79664062 1.0515625 1.59328125 1.078125 2.4140625 C1.42262954 8.85003362 1.93454567 12.79113664 6 18 C6.75 20.875 6.75 20.875 7 23 C7.66 23 8.32 23 9 23 C9 23.66 9 24.32 9 25 C7.203125 24.87109375 7.203125 24.87109375 5 24 C0.4083549 17.01775069 -2.41430999 9.37844397 -1 1 C-0.67 0.67 -0.34 0.34 0 0 Z " fill="#77C9D1" transform="translate(2,87)"/>
<path d="M0 0 C9.63065 -0.63267044 16.5635744 0.17918537 25 5 C25 6.32 25 7.64 25 9 C24.01 8.67 23.02 8.34 22 8 C22 7.34 22 6.68 22 6 C19.36 5.67 16.72 5.34 14 5 C14 4.34 14 3.68 14 3 C10.99221479 1.99740493 8.46179353 1.69685358 5.3125 1.4375 C4.31863281 1.35371094 3.32476562 1.26992188 2.30078125 1.18359375 C1.16189453 1.09271484 1.16189453 1.09271484 0 1 C0 0.67 0 0.34 0 0 Z " fill="#76CDD4" transform="translate(122,58)"/>
<path d="M0 0 C3.83872086 1.27957362 4.6715571 2.91974207 7 6.1875 C7.680625 7.12980469 8.36125 8.07210937 9.0625 9.04296875 C14.15574603 16.81633014 14.15574603 16.81633014 13.6875 20.375 C13.3471875 21.179375 13.3471875 21.179375 13 22 C12.56429687 21.2265625 12.12859375 20.453125 11.6796875 19.65625 C8.44142015 13.99278676 5.17027552 8.60237754 1.06640625 3.5234375 C0 2 0 2 0 0 Z " fill="#73CED5" transform="translate(205,62)"/>
<path d="M0 0 C1.32 0 2.64 0 4 0 C4 0.66 4 1.32 4 2 C5.32 2.66 6.64 3.32 8 4 C8 4.66 8 5.32 8 6 C9.65 6 11.3 6 13 6 C16 11.75 16 11.75 16 14 C9.46720582 11.03982764 4.18221366 5.75054379 0 0 Z " fill="#76D3DC" transform="translate(188,47)"/>
<path d="M0 0 C10.6541697 -0.82095486 19.12199261 1.4494967 29 5 C29 5.66 29 6.32 29 7 C25.5613195 6.57016494 22.77494498 5.90588608 19.5625 4.5625 C13.38393573 2.09591074 6.56661659 1.72677397 0 1 C0 0.67 0 0.34 0 0 Z " fill="#85D4D8" transform="translate(136,26)"/>
<path d="M0 0 C-3.29147499 3.29147499 -7.49665701 4.15172487 -12 5 C-15.39783622 4.96316709 -18.65629103 4.59048478 -22 4 C-22 3.67 -22 3.34 -22 3 C-6.13953488 -2.04651163 -6.13953488 -2.04651163 0 0 Z " fill="#82D4D6" transform="translate(163,183)"/>
<path d="M0 0 C1.9480957 0.00483398 1.9480957 0.00483398 3.93554688 0.00976562 C5.30729233 0.01812094 6.67903712 0.02658588 8.05078125 0.03515625 C9.4342432 0.0401729 10.81770688 0.04473552 12.20117188 0.04882812 C15.5885852 0.06063096 18.97591158 0.07709606 22.36328125 0.09765625 C22.36328125 0.42765625 22.36328125 0.75765625 22.36328125 1.09765625 C21.17992187 1.15824219 19.9965625 1.21882813 18.77734375 1.28125 C17.1809697 1.36550964 15.58461684 1.45017125 13.98828125 1.53515625 C12.75440674 1.59956909 12.75440674 1.59956909 11.49560547 1.6652832 C6.39834387 1.94422031 1.36153384 2.3577728 -3.69140625 3.109375 C-6.11509935 3.09477444 -7.56747744 2.30857998 -9.63671875 1.09765625 C-6.21920222 -0.04151593 -3.60183938 -0.01572856 0 0 Z " fill="#8CD6DC" transform="translate(112.63671875,24.90234375)"/>
<path d="M0 0 C0.59554687 0.22042969 1.19109375 0.44085938 1.8046875 0.66796875 C1.29679687 1.09207031 0.78890625 1.51617187 0.265625 1.953125 C-3.89883467 5.5014942 -7.58312216 9.07984975 -10.96875 13.3828125 C-11.37351563 13.80691406 -11.77828125 14.23101562 -12.1953125 14.66796875 C-12.8553125 14.66796875 -13.5153125 14.66796875 -14.1953125 14.66796875 C-13.8653125 13.01796875 -13.5353125 11.36796875 -13.1953125 9.66796875 C-12.2053125 9.66796875 -11.2153125 9.66796875 -10.1953125 9.66796875 C-9.9890625 9.13171875 -9.7828125 8.59546875 -9.5703125 8.04296875 C-7.51434779 4.49175698 -4.5151082 -0.68289003 0 0 Z " fill="#7FCED2" transform="translate(63.1953125,48.33203125)"/>
<path d="M0 0 C-0.33 0.99 -0.66 1.98 -1 3 C-2.7015625 3.7115625 -2.7015625 3.7115625 -4.4375 4.4375 C-8.18999167 6.08332968 -8.57794458 6.44486146 -10 10 C-10.99 10.33 -11.98 10.66 -13 11 C-13 10.34 -13 9.68 -13 9 C-13.66 8.67 -14.32 8.34 -15 8 C-13.3990869 6.84962529 -11.79414775 5.70485184 -10.1875 4.5625 C-9.29417969 3.92441406 -8.40085937 3.28632812 -7.48046875 2.62890625 C-4.94635478 0.96477156 -3.06475148 0 0 0 Z " fill="#85D6DF" transform="translate(117,59)"/>
<path d="M0 0 C0.66 0.33 1.32 0.66 2 1 C1.3503125 1.68835938 1.3503125 1.68835938 0.6875 2.390625 C0.130625 3.00421875 -0.42625 3.6178125 -1 4.25 C-1.556875 4.85328125 -2.11375 5.4565625 -2.6875 6.078125 C-4.37597443 8.162653 -4.37597443 8.162653 -4 12 C-1.57327433 13.78969026 -1.57327433 13.78969026 1 15 C-0.75 15.75 -0.75 15.75 -3 16 C-5.3125 14.375 -5.3125 14.375 -7 12 C-6.89860063 8.04542447 -5.24467452 5.19434451 -3 2 C-2.01 1.34 -1.02 0.68 0 0 Z " fill="#81CCD0" transform="translate(42,211)"/>
<path d="M0 0 C0.33 0 0.66 0 1 0 C0.98839844 0.90363281 0.97679687 1.80726562 0.96484375 2.73828125 C0.95582031 3.91777344 0.94679687 5.09726563 0.9375 6.3125 C0.92589844 7.48425781 0.91429687 8.65601562 0.90234375 9.86328125 C0.85100102 13.03059195 0.85100102 13.03059195 2 16 C0.75 19.125 0.75 19.125 -1 22 C-1.99 22.33 -2.98 22.66 -4 23 C-3.54527307 20.65057753 -3.07307793 18.3096827 -2.5234375 15.98046875 C-1.27419348 10.65719758 -0.51850309 5.44428244 0 0 Z " fill="#6CD1D9" transform="translate(158,86)"/>
<path d="M0 0 C7.35028773 0.88203453 14.67349017 1.94012568 22 3 C22 3.33 22 3.66 22 4 C15.73 4 9.46 4 3 4 C3 3.34 3 2.68 3 2 C2.01 2 1.02 2 0 2 C0 1.34 0 0.68 0 0 Z " fill="#83D2D5" transform="translate(95,218)"/>
<path d="M0 0 C0.99 0.33 1.98 0.66 3 1 C2.67 4.3 2.34 7.6 2 11 C0.68 10.34 -0.64 9.68 -2 9 C-2.125 5.625 -2.125 5.625 -2 2 C-1.34 1.34 -0.68 0.68 0 0 Z " fill="#61D7E1" transform="translate(194,136)"/>
<path d="M0 0 C0.33 0.99 0.66 1.98 1 3 C-0.1796875 4.6484375 -0.1796875 4.6484375 -1.875 6.375 C-4.44935168 9.18175843 -5.76202676 11.07344152 -6 15 C-6.66 15 -7.32 15 -8 15 C-8.75 12.8125 -8.75 12.8125 -9 10 C-6.52632405 6.1943447 -3.24679896 3.1566101 0 0 Z " fill="#8DD0D4" transform="translate(198,128)"/>
<path d="M0 0 C-2.61841871 2.61841871 -4.71587765 2.81850937 -8.3125 3.625 C-9.44300781 3.88539062 -10.57351562 4.14578125 -11.73828125 4.4140625 C-14.59220771 4.9267439 -17.11339907 5.11914675 -20 5 C-20 4.34 -20 3.68 -20 3 C-13.19925959 1.09579269 -7.08076251 -0.40850553 0 0 Z " fill="#7CD2D5" transform="translate(109,0)"/>
<path d="M0 0 C4.26769478 0.25104087 6.49837505 0.59651906 9.875 3.3125 C11.7836979 5.72644147 12.66659445 6.99935003 13 10 C11.68 10.33 10.36 10.66 9 11 C9 9.02 9 7.04 9 5 C8.2575 4.87625 7.515 4.7525 6.75 4.625 C4.19858515 4.04513299 2.2732427 3.26291261 0 2 C0 1.34 0 0.68 0 0 Z " fill="#6DD6DF" transform="translate(197,22)"/>
<path d="M0 0 C1.485 0.99 1.485 0.99 3 2 C3.3984375 5.15234375 3.3984375 5.15234375 3.375 8.9375 C3.38273438 10.18402344 3.39046875 11.43054688 3.3984375 12.71484375 C3 16 3 16 0 19 C0 12.73 0 6.46 0 0 Z " fill="#82D1D4" transform="translate(158,82)"/>
<path d="M0 0 C0 0.66 0 1.32 0 2 C-1.59766103 2.86627399 -3.20339944 3.71766465 -4.8125 4.5625 C-5.70582031 5.03816406 -6.59914062 5.51382813 -7.51953125 6.00390625 C-10 7 -10 7 -13 6 C-11.78294994 4.98528829 -10.55073116 3.9887539 -9.3125 3 C-8.62800781 2.443125 -7.94351563 1.88625 -7.23828125 1.3125 C-4.61216944 -0.22741897 -2.99396644 -0.25168194 0 0 Z " fill="#6AD1D1" transform="translate(211,227)"/>
<path d="M0 0 C3.0625 0.1875 3.0625 0.1875 5.0625 2.1875 C-0.78638043 3.20644076 -6.44669169 3.30548453 -12.375 3.25 C-13.29732422 3.24548828 -14.21964844 3.24097656 -15.16992188 3.23632812 C-17.42585048 3.22463938 -19.68163967 3.20825455 -21.9375 3.1875 C-21.9375 2.8575 -21.9375 2.5275 -21.9375 2.1875 C-20.64972656 2.12691406 -19.36195312 2.06632813 -18.03515625 2.00390625 C-16.35675841 1.91951753 -14.67837364 1.8348687 -13 1.75 C-11.72479492 1.69102539 -11.72479492 1.69102539 -10.42382812 1.63085938 C-9.61494141 1.58896484 -8.80605469 1.54707031 -7.97265625 1.50390625 C-6.84935913 1.44891968 -6.84935913 1.44891968 -5.70336914 1.39282227 C-3.07188529 1.08685269 -3.03812194 0.19392268 0 0 Z " fill="#6ED1D6" transform="translate(137.9375,159.8125)"/>
<path d="M0 0 C0 0.66 0 1.32 0 2 C-6.88002171 4.62096065 -13.72176039 4.18170362 -21 4 C-21 3.67 -21 3.34 -21 3 C-19.67935547 2.80083984 -19.67935547 2.80083984 -18.33203125 2.59765625 C-17.17058594 2.42105469 -16.00914062 2.24445313 -14.8125 2.0625 C-13.08966797 1.80146484 -13.08966797 1.80146484 -11.33203125 1.53515625 C-9.30156896 1.20904449 -7.27557168 0.85015391 -5.26171875 0.43359375 C-3 0 -3 0 0 0 Z " fill="#8BD3D7" transform="translate(159,218)"/>
<path d="M0 0 C0 0.99 0 1.98 0 3 C-0.66 3 -1.32 3 -2 3 C-2.33 4.32 -2.66 5.64 -3 7 C-3.66 7 -4.32 7 -5 7 C-5.66 8.32 -6.32 9.64 -7 11 C-7.66 10.67 -8.32 10.34 -9 10 C-7.43218469 5.53775641 -5.99772437 3.08447895 -1.8125 0.8125 C-1.214375 0.544375 -0.61625 0.27625 0 0 Z " fill="#70CDD6" transform="translate(207,121)"/>
<path d="M0 0 C5.30550448 2.89391153 8.16177649 6.14303957 10 12 C9.67 12.66 9.34 13.32 9 14 C8.34 13.67 7.68 13.34 7 13 C6.375 10.4375 6.375 10.4375 6 8 C5.34 8 4.68 8 4 8 C0 2.58823529 0 2.58823529 0 0 Z " fill="#78CFD5" transform="translate(42,115)"/>
<path d="M0 0 C1.5 1.375 1.5 1.375 3 3 C3 3.66 3 4.32 3 5 C3.99 5.33 4.98 5.66 6 6 C7.1875 8.0625 7.1875 8.0625 8 10 C5.69 9.67 3.38 9.34 1 9 C0 2.25 0 2.25 0 0 Z " fill="#87D9DD" transform="translate(169,153)"/>
<path d="M0 0 C0.268125 0.639375 0.53625 1.27875 0.8125 1.9375 C1.88667752 4.33131686 1.88667752 4.33131686 5 5 C5 7.31 5 9.62 5 12 C4.01 12.33 3.02 12.66 2 13 C1.34 11.68 0.68 10.36 0 9 C0.99 9 1.98 9 3 9 C3 8.34 3 7.68 3 7 C2.34 7 1.68 7 1 7 C0.34 5.02 -0.32 3.04 -1 1 C-0.67 0.67 -0.34 0.34 0 0 Z " fill="#6ADBE7" transform="translate(8,103)"/>
<path d="M0 0 C1.44564445 2.29602354 2.01915134 3.63612457 1.875 6.375 C0.76150112 9.71549665 -0.86217616 12.21435076 -3 15 C-3.66 15 -4.32 15 -5 15 C-3.87548273 12.0280615 -2.77706209 9.66559313 -1 7 C-0.60612212 4.67612053 -0.26513915 2.34206251 0 0 Z " fill="#91D6DD" transform="translate(222,90)"/>
<path d="M0 0 C1 3 1 3 1 5 C-0.96875 6.7265625 -0.96875 6.7265625 -3.5 8.625 C-4.75296875 9.57246094 -4.75296875 9.57246094 -6.03125 10.5390625 C-6.6809375 11.02117188 -7.330625 11.50328125 -8 12 C-8.66 11.67 -9.32 11.34 -10 11 C-9.01 10.67 -8.02 10.34 -7 10 C-6.71125 9.2575 -6.4225 8.515 -6.125 7.75 C-4.73024988 4.34061083 -2.68504743 2.47307 0 0 Z " fill="#89D4D9" transform="translate(33,38)"/>
<path d="M0 0 C5.43614072 2.7832093 9.93265026 5.40783094 14 10 C9.15409462 9.55946315 5.51858133 7.25494123 2 4 C2 3.34 2 2.68 2 2 C1.34 2 0.68 2 0 2 C0 1.34 0 0.68 0 0 Z " fill="#8ED7DC" transform="translate(188,13)"/>
<path d="M0 0 C6.13471503 3.48186528 6.13471503 3.48186528 8 6 C8.6875 9.1875 8.6875 9.1875 9 12 C8.01 12 7.02 12 6 12 C5.7525 11.0925 5.505 10.185 5.25 9.25 C3.95087424 5.87227303 2.59801015 4.42480947 0 2 C0 1.34 0 0.68 0 0 Z " fill="#71C9D0" transform="translate(174,162)"/>
<path d="M0 0 C0.99 0 1.98 0 3 0 C0.82367811 4.89672424 -1.88229672 8.98947371 -7 11 C-7.33 10.01 -7.66 9.02 -8 8 C-7.01 7.67 -6.02 7.34 -5 7 C-4.67 6.01 -4.34 5.02 -4 4 C-1.9375 3.3125 -1.9375 3.3125 0 3 C0 2.01 0 1.02 0 0 Z " fill="#84D1D2" transform="translate(153,108)"/>
<path d="M0 0 C-1.75864246 2.1793144 -2.69396 2.93686419 -5.48046875 3.51171875 C-6.82044922 3.59873047 -6.82044922 3.59873047 -8.1875 3.6875 C-9.08855469 3.75324219 -9.98960938 3.81898437 -10.91796875 3.88671875 C-11.60503906 3.92410156 -12.29210938 3.96148438 -13 4 C-9.01080755 -0.19672269 -5.72115367 -1.63461533 0 0 Z " fill="#81D8E0" transform="translate(75,12)"/>
<path d="M0 0 C3.75 0.1875 3.75 0.1875 7 1 C7.33 1.99 7.66 2.98 8 4 C6.906875 3.773125 5.81375 3.54625 4.6875 3.3125 C1.09468727 2.59853617 1.09468727 2.59853617 -0.9375 4.4375 C-1.288125 4.953125 -1.63875 5.46875 -2 6 C-2.66 5.67 -3.32 5.34 -4 5 C-2.4375 2.4375 -2.4375 2.4375 0 0 Z " fill="#76CBD3" transform="translate(85,152)"/>
<path d="M0 0 C-2.95042851 1.56078353 -5.8835613 2.73350678 -9.0625 3.75 C-9.91972656 4.03359375 -10.77695313 4.3171875 -11.66015625 4.609375 C-14 5 -14 5 -17 3 C-11.17745757 1.03181664 -6.16618181 -0.40214229 0 0 Z " fill="#6BC9CB" transform="translate(107,27)"/>
<path d="M0 0 C1.43791516 0.14168137 2.8753237 0.28851043 4.3125 0.4375 C5.11300781 0.51871094 5.91351563 0.59992188 6.73828125 0.68359375 C9 1 9 1 12 2 C12 2.66 12 3.32 12 4 C12.99 4.33 13.98 4.66 15 5 C9.54520815 4.43179252 5.08940744 3.05362055 0 1 C0 0.67 0 0.34 0 0 Z " fill="#6CC9D0" transform="translate(83,216)"/>
<path d="M0 0 C0.33 0.99 0.66 1.98 1 3 C-0.43359375 5.69921875 -0.43359375 5.69921875 -2.4375 8.6875 C-3.42556641 10.17830078 -3.42556641 10.17830078 -4.43359375 11.69921875 C-5.20896484 12.83810547 -5.20896484 12.83810547 -6 14 C-6.33 12.68 -6.66 11.36 -7 10 C-6.34 10 -5.68 10 -5 10 C-4.9175 9.278125 -4.835 8.55625 -4.75 7.8125 C-3.85249799 4.44686746 -2.2885722 2.58387184 0 0 Z " fill="#83D0D6" transform="translate(238,120)"/>
<path d="M0 0 C9.59453303 2.89066059 9.59453303 2.89066059 13 6 C10 7 10 7 8.02734375 6.328125 C7.33769531 5.97234375 6.64804688 5.6165625 5.9375 5.25 C5.24527344 4.90453125 4.55304688 4.5590625 3.83984375 4.203125 C2 3 2 3 0 0 Z " fill="#73CDCF" transform="translate(77,176)"/>
<path d="M0 0 C1 1 2 2 3 3 C3.556875 3.4125 4.11375 3.825 4.6875 4.25 C6.75476578 7.00635438 6.18823775 9.67446646 6 13 C2.84297684 9.09130466 0 5.1385061 0 0 Z " fill="#62D1D7" transform="translate(246,81)"/>
<path d="M0 0 C0.66 0.33 1.32 0.66 2 1 C1.875 3.3125 1.875 3.3125 1 6 C-3.86206897 9 -3.86206897 9 -7 9 C-7 8.34 -7 7.68 -7 7 C-4.09451118 4.95830515 -2.59857954 4 1 4 C0.67 2.68 0.34 1.36 0 0 Z " fill="#8FD4D5" transform="translate(182,170)"/>
<path d="M0 0 C0.33 0 0.66 0 1 0 C0.88610125 1.79240663 0.75852313 3.58394835 0.625 5.375 C0.52058594 6.87160156 0.52058594 6.87160156 0.4140625 8.3984375 C0 11 0 11 -2 13 C-3.19876651 7.55106131 -2.91360308 4.77830905 0 0 Z " fill="#86D4DA" transform="translate(5,78)"/>
<path d="M0 0 C2.52394612 3.12488567 4.39701907 6.31314387 6 10 C5.67 10.66 5.34 11.32 5 12 C4.34 12 3.68 12 3 12 C0.58314288 7.77050005 -0.34833144 4.87664009 0 0 Z " fill="#93D5DA" transform="translate(246,75)"/>
<path d="M0 0 C0.99 0.33 1.98 0.66 3 1 C0.69 4.3 -1.62 7.6 -4 11 C-5 7 -5 7 -4.0625 4.75 C-3.5365625 3.88375 -3.5365625 3.88375 -3 3 C-2.34 3 -1.68 3 -1 3 C-0.67 2.01 -0.34 1.02 0 0 Z " fill="#87D8DC" transform="translate(46,64)"/>
<path d="M0 0 C1.93833996 0.08715017 3.8757429 0.19532964 5.8125 0.3125 C7.43091797 0.39951172 7.43091797 0.39951172 9.08203125 0.48828125 C12.17497517 1.03068507 13.13022903 1.55289624 15 4 C9.76119922 3.44854729 5.02649303 2.57077907 0 1 C0 0.67 0 0.34 0 0 Z " fill="#97DBDE" transform="translate(81,244)"/>
<path d="M0 0 C0 0.66 0 1.32 0 2 C-0.66 2 -1.32 2 -2 2 C-2 2.66 -2 3.32 -2 4 C-5.3 3.67 -8.6 3.34 -12 3 C-12 2.67 -12 2.34 -12 2 C-7.8803623 0.70756464 -4.33168317 -0.26252625 0 0 Z " fill="#67D3D7" transform="translate(153,184)"/>
<path d="M0 0 C0.65234375 1.765625 0.65234375 1.765625 1 4 C0.00390625 5.921875 0.00390625 5.921875 -1.4375 7.75 C-2.14712891 8.67039063 -2.14712891 8.67039063 -2.87109375 9.609375 C-3.24363281 10.06828125 -3.61617187 10.5271875 -4 11 C-4.58203125 9.140625 -4.58203125 9.140625 -5 7 C-3.6875 4.75 -3.6875 4.75 -2 3 C-1.34 3 -0.68 3 0 3 C0 2.01 0 1.02 0 0 Z " fill="#8FD4D3" transform="translate(63,137)"/>
<path d="M0 0 C0.66 0.33 1.32 0.66 2 1 C-1.3 3.31 -4.6 5.62 -8 8 C-8.66 7.34 -9.32 6.68 -10 6 C-6.375 3 -6.375 3 -3 3 C-3 2.34 -3 1.68 -3 1 C-2.01 0.67 -1.02 0.34 0 0 Z " fill="#8FD5DA" transform="translate(74,40)"/>
<path d="M0 0 C2.31 0.66 4.62 1.32 7 2 C7 3.32 7 4.64 7 6 C6.01 6.495 6.01 6.495 5 7 C4.731875 6.195625 4.46375 5.39125 4.1875 4.5625 C3.795625 3.716875 3.40375 2.87125 3 2 C2.01 1.67 1.02 1.34 0 1 C0 0.67 0 0.34 0 0 Z " fill="#84D8DE" transform="translate(193,146)"/>
<path d="M0 0 C-1 3 -1 3 -2.84765625 3.94921875 C-3.57855469 4.19285156 -4.30945313 4.43648437 -5.0625 4.6875 C-6.16271484 5.06455078 -6.16271484 5.06455078 -7.28515625 5.44921875 C-7.85105469 5.63097656 -8.41695313 5.81273438 -9 6 C-8 3 -8 3 -5.0625 1.3125 C-2 0 -2 0 0 0 Z " fill="#79D0D2" transform="translate(117,59)"/>
<path d="M0 0 C1 3 1 3 -0.1875 5.5625 C-2.02001957 8.02692286 -3.17445421 8.92824125 -6 10 C-4.34832443 6.4213696 -2.21713508 3.25179812 0 0 Z " fill="#8CD7DA" transform="translate(19,55)"/>
<path d="M0 0 C1.32 0.33 2.64 0.66 4 1 C1.36 2.98 -1.28 4.96 -4 7 C-4 4 -4 4 -2.25 1.75 C-1.5075 1.1725 -0.765 0.595 0 0 Z " fill="#7ED6DA" transform="translate(61,48)"/>
<path d="M0 0 C4.1424367 1.38081223 5.32203099 3.59825558 8 7 C6.68 7 5.36 7 4 7 C4 6.34 4 5.68 4 5 C3.01 5 2.02 5 1 5 C0.67 3.35 0.34 1.7 0 0 Z " fill="#8AD7DE" transform="translate(209,28)"/>
<path d="M0 0 C0.33 1.32 0.66 2.64 1 4 C-1.97 4.66 -4.94 5.32 -8 6 C-5.51047079 3.33264727 -3.36591866 1.44253657 0 0 Z " fill="#81D8DD" transform="translate(61,16)"/>
<path d="M0 0 C3.25696479 0.41755959 4.63443291 0.63443291 7 3 C7 3.66 7 4.32 7 5 C1.25 3.25 1.25 3.25 -1 1 C-0.67 0.67 -0.34 0.34 0 0 Z " fill="#82D9DC" transform="translate(55,233)"/>
<path d="M0 0 C0 3.59857954 -0.95830515 5.09451118 -3 8 C-3.66 8 -4.32 8 -5 8 C-4.125 3.25 -4.125 3.25 -3 1 C-2.01 0.67 -1.02 0.34 0 0 Z " fill="#70CCD2" transform="translate(219,104)"/>
<path d="M0 0 C0.75 1.5625 0.75 1.5625 1 4 C-0.13084437 6.50286409 -1.52139516 8.67007722 -3 11 C-3.66 11 -4.32 11 -5 11 C-3.77472971 6.94718288 -2.30119506 3.55639236 0 0 Z " fill="#91D3D7" transform="translate(12,65)"/>
<path d="M0 0 C2.64 0.33 5.28 0.66 8 1 C7.67 1.99 7.34 2.98 7 4 C5.68 4 4.36 4 3 4 C3 3.34 3 2.68 3 2 C2.01 2 1.02 2 0 2 C0 1.34 0 0.68 0 0 Z " fill="#8DDDE2" transform="translate(95,218)"/>
<path d="M0 0 C0.75 1.75 0.75 1.75 1 4 C-0.9375 6.25 -0.9375 6.25 -3 8 C-3 3.73173127 -2.62386487 3.06117568 0 0 Z " fill="#72CED1" transform="translate(57,145)"/>
<path d="M0 0 C0.33 0.66 0.66 1.32 1 2 C0.06553465 4.03144641 -0.93224776 6.03533587 -2 8 C-2.99 7.67 -3.98 7.34 -5 7 C-3.35 4.69 -1.7 2.38 0 0 Z " fill="#95D9DA" transform="translate(47,203)"/>
<path d="M0 0 C-3.28463659 2.18975773 -6.20696275 2.99806563 -10 4 C-10 3.34 -10 2.68 -10 2 C-6.5980513 -0.09350689 -3.94727588 -0.17942163 0 0 Z " fill="#8BD1D5" transform="translate(175,179)"/>
<path d="M0 0 C0.66 0.33 1.32 0.66 2 1 C1.67 1.99 1.34 2.98 1 4 C0.34 4 -0.32 4 -1 4 C-1 4.66 -1 5.32 -1 6 C-2.32 6.33 -3.64 6.66 -5 7 C-3.35 4.69 -1.7 2.38 0 0 Z " fill="#89D8DE" transform="translate(77,162)"/>
<path d="M0 0 C-2.62198774 2.15377564 -4.64404172 3.40072174 -8 4 C-8 3.01 -8 2.02 -8 1 C-5.29120665 -0.35439668 -2.99066732 -0.06501451 0 0 Z " fill="#88D2D6" transform="translate(146,119)"/>
<path d="M0 0 C0.66 0.33 1.32 0.66 2 1 C-0.475 4.465 -0.475 4.465 -3 8 C-3.66 7.01 -4.32 6.02 -5 5 C-3.35 3.35 -1.7 1.7 0 0 Z " fill="#5DD1D8" transform="translate(38,35)"/>
<path d="M0 0 C0.99 0.495 0.99 0.495 2 1 C2 1.66 2 2.32 2 3 C2.66 3 3.32 3 4 3 C4 3.99 4 4.98 4 6 C4.99 6 5.98 6 7 6 C6.67 6.66 6.34 7.32 6 8 C3.5625 6.8125 3.5625 6.8125 1 5 C0.1875 2.3125 0.1875 2.3125 0 0 Z " fill="#68C5C8" transform="translate(199,150)"/>
<path d="M0 0 C2.27521866 2.16687491 4.15794162 4.45620509 6 7 C5.67 7.66 5.34 8.32 5 9 C3.0625 7.875 3.0625 7.875 1 6 C0.25 2.8125 0.25 2.8125 0 0 Z " fill="#A1D9DD" transform="translate(39,108)"/>
<path d="M0 0 C0.66 0 1.32 0 2 0 C1.34 2.97 0.68 5.94 0 9 C-0.33 9 -0.66 9 -1 9 C-1.09765625 2.84765625 -1.09765625 2.84765625 -1 1 C-0.67 0.67 -0.34 0.34 0 0 Z " fill="#7DC4C9" transform="translate(95,78)"/>
<path d="M0 0 C2.04119788 1.61594832 4.04072937 3.2856382 6 5 C6 5.66 6 6.32 6 7 C3.53199953 5.84826645 1.95216435 4.95216435 0 3 C0 2.01 0 1.02 0 0 Z " fill="#6EC7CA" transform="translate(198,54)"/>
<path d="" fill="#FFFFFF" transform="translate(0,0)"/>
<path d="" fill="#FFFFFF" transform="translate(0,0)"/>
<path d="" fill="#FFFFFF" transform="translate(0,0)"/>
<path d="" fill="#FFFFFF" transform="translate(0,0)"/>
<path d="" fill="#FFFFFF" transform="translate(0,0)"/>
<path d="" fill="#FFFFFF" transform="translate(0,0)"/>
<path d="" fill="#FFFFFF" transform="translate(0,0)"/>
<path d="" fill="#FFFFFF" transform="translate(0,0)"/>
<path d="" fill="#FFFFFF" transform="translate(0,0)"/>
<path d="" fill="#FFFFFF" transform="translate(0,0)"/>
<path d="" fill="#FFFFFF" transform="translate(0,0)"/>
<path d="" fill="#FFFFFF" transform="translate(0,0)"/>
<path d="" fill="#FFFFFF" transform="translate(0,0)"/>
<path d="" fill="#FFFFFF" transform="translate(0,0)"/>
</svg>
